HIERARCHY
ROOT root
{
	OFFSET	0	13.1	24.9
	CHANNELS 6  Xposition Yposition Zposition Xrotation Yrotation Zrotation
	JOINT spine_1
	{
		OFFSET	0	9.99999	0
		CHANNELS 3  Xrotation Yrotation Zrotation
		JOINT spine_2
		{
			OFFSET	0	112	-10
			CHANNELS 3  Xrotation Yrotation Zrotation
			JOINT spine_3
			{
				OFFSET	0	206.5	19.3
				CHANNELS 3  Xrotation Yrotation Zrotation
				JOINT spine_4
				{
					OFFSET	0	110.4	14.6
					CHANNELS 3  Xrotation Yrotation Zrotation
					JOINT neck_1
					{
						OFFSET	0	71.8	-50.3
						CHANNELS 3  Xrotation Yrotation Zrotation
						JOINT neck_2
						{
							OFFSET	0	86.2	-25.8
							CHANNELS 3  Xrotation Yrotation Zrotation
							JOINT head_ee
							{
								OFFSET	0	179.8	-8.7
								CHANNELS 3  Xrotation Yrotation Zrotation
								End Site
								{
									OFFSET	1	0	0
								}
							}
						}
					}
					JOINT left_clavicle
					{
						OFFSET	-43.2	22.4	-70.8
						CHANNELS 3  Xrotation Yrotation Zrotation
						JOINT left_shoulder
						{
							OFFSET	-93.9	-5.79999	48.7
							CHANNELS 3  Xrotation Yrotation Zrotation
							JOINT left_elbow
							{
								OFFSET	-291.4	-30.8	15.2
								CHANNELS 3  Xrotation Yrotation Zrotation
								JOINT left_lowarm_twist
								{
									OFFSET	-110.7	-3.89999	13.6
									CHANNELS 3  Xrotation Yrotation Zrotation
									JOINT left_hand
									{
										OFFSET	-110.7	-3.89999	13.6
										CHANNELS 3  Xrotation Yrotation Zrotation
										JOINT left_ee
										{
											OFFSET	-80.8	-5.10001	12.1
											CHANNELS 3  Xrotation Yrotation Zrotation
											End Site
											{
												OFFSET	1	0	0
											}
										}
									}
								}
							}
						}
					}
					JOINT right_clavicle
					{
						OFFSET	43.2	22.4	-70.8
						CHANNELS 3  Xrotation Yrotation Zrotation
						JOINT right_shoulder
						{
							OFFSET	93.9	-5.79999	48.7
							CHANNELS 3  Xrotation Yrotation Zrotation
							JOINT right_elbow
							{
								OFFSET	291.4	-30.8	15.2
								CHANNELS 3  Xrotation Yrotation Zrotation
								JOINT right_lowarm_twist
								{
									OFFSET	110.7	-3.89999	13.6
									CHANNELS 3  Xrotation Yrotation Zrotation
									JOINT right_hand
									{
										OFFSET	110.7	-3.89999	13.6
										CHANNELS 3  Xrotation Yrotation Zrotation
										JOINT right_ee
										{
											OFFSET	80.8	-5.10001	12.1
											CHANNELS 3  Xrotation Yrotation Zrotation
											End Site
											{
												OFFSET	1	0	0
											}
										}
									}
								}
							}
						}
					}
				}
			}
		}
	}
	JOINT left_hip
	{
		OFFSET	-82.8	-127.5	0.300001
		CHANNELS 3  Xrotation Yrotation Zrotation
		JOINT left_knee
		{
			OFFSET	-28.2	-396.7	2.2
			CHANNELS 3  Xrotation Yrotation Zrotation
			JOINT left_ankle
			{
				OFFSET	-11.7	-411.3	35.4
				CHANNELS 3  Xrotation Yrotation Zrotation
				JOINT left_toes
				{
					OFFSET	0	-60	-88.6
					CHANNELS 3  Xrotation Yrotation Zrotation
					JOINT left_foot_ee
					{
						OFFSET	-22.5	-16.5	-42.2
						CHANNELS 3  Xrotation Yrotation Zrotation
						End Site
						{
							OFFSET	1	0	0
						}
					}
				}
			}
		}
	}
	JOINT right_hip
	{
		OFFSET	82.8	-127.5	0.300001
		CHANNELS 3  Xrotation Yrotation Zrotation
		JOINT right_knee
		{
			OFFSET	28.2	-396.7	2.2
			CHANNELS 3  Xrotation Yrotation Zrotation
			JOINT right_ankle
			{
				OFFSET	11.7	-411.3	35.4
				CHANNELS 3  Xrotation Yrotation Zrotation
				JOINT right_toes
				{
					OFFSET	0	-60	-88.6
					CHANNELS 3  Xrotation Yrotation Zrotation
					JOINT right_foot_ee
					{
						OFFSET	22.5	-16.5	-42.2
						CHANNELS 3  Xrotation Yrotation Zrotation
						End Site
						{
							OFFSET	1	0	0
						}
					}
				}
			}
		}
	}
}
MOTION
Frames: 13
Frame Time: 0.02
3177.02 653.055 -1669.29 -13.5346148405 66.738234241 14.8422753997 -0.11909 0.474177 0.853711 -0.118782 0.418894 0.882152 -0.111985 0.222312 0.950911 -0.113057 0.369695 0.903873 5.27842 21.0239 -2.8195 7.60429 38.5652 -3.08078 -0.0 0.0 -0.0 4.15291 24.6032 8.4143 -20.2638 -3.82952 72.2974 0.537758 -14.9168 0.0704002 -26.7422 -1.66378 2.95539 -3.27136 27.093 -7.37817 -0.0 0.0 -0.0 13.5515 23.0271 -27.2795 7.92178 24.3181 -66.9525 0.840201 22.5974 -0.167872 7.60652 -0.20524 0.94926 3.52313 -12.4836 -28.7049 0.0 0.0 0.0 30.0277 13.8896 -11.7166 4.12041 -0.191476 -0.603069 -7.16726 -12.4034 1.1401 -28.0692 0.0 0.0 -0.0 0.0 -0.0 -6.43994 -22.4629 4.36702 -11.9166 -0.304375 -1.80017 34.1815 30.1807 5.31796 -14.891 0.0 0.0 0.0 0.0 0.0 
3144.30477454 652.779 -1665.87290725 -12.4839238062 68.0925411011 13.7401105213 -0.0259839 0.198729 0.901197 -0.0255431 0.140983 0.912016 -0.0230316 -0.0542184 0.921253 -0.0242042 0.0919505 0.918255 6.7609 21.2059 -3.48073 9.47103 39.0275 -4.37719 -0.0 0.0 -0.0 4.58085 24.7248 8.99295 -20.5002 -3.72829 71.5461 0.494578 -13.7665 0.059704 -26.9172 -1.67903 2.97185 -3.39568 27.1631 -8.02749 -0.0 0.0 -0.0 13.3858 23.1851 -26.8768 5.92363 23.5456 -67.3969 0.767098 20.8066 -0.140837 8.25668 -0.216901 1.03149 3.74052 -12.9948 -30.4628 0.0 0.0 0.0 28.2352 14.4277 -10.4461 3.91008 -0.180653 -0.572622 -7.64042 -12.8708 1.22024 -28.1755 0.0 0.0 -0.0 0.0 -0.0 -7.0872 -22.1165 4.90917 -12.8237 -0.312106 -1.93914 33.2415 25.7442 4.94959 -15.3844 0.0 0.0 0.0 0.0 0.0 
3144.31721028 652.779 -1665.75587428 -12.5951631529 68.2926554425 13.8599237885 -0.0259839 0.198729 0.901197 -0.0255431 0.140983 0.912016 -0.0230316 -0.0542184 0.921253 -0.0242042 0.0919505 0.918255 6.7609 21.2059 -3.48073 9.47103 39.0275 -4.37719 -0.0 0.0 -0.0 4.58085 24.7248 8.99295 -20.5002 -3.72829 71.5461 0.494578 -13.7665 0.059704 -26.9172 -1.67903 2.97185 -3.39568 27.1631 -8.02749 -0.0 0.0 -0.0 13.3858 23.1851 -26.8768 5.92363 23.5456 -67.3969 0.767098 20.8066 -0.140837 8.25668 -0.216901 1.03149 3.74052 -12.9948 -30.4628 0.0 0.0 0.0 28.2352 14.4277 -10.4461 3.91008 -0.180653 -0.572622 -7.64042 -12.8708 1.22024 -28.1755 0.0 0.0 -0.0 0.0 -0.0 -7.0872 -22.1165 4.90917 -12.8237 -0.312106 -1.93914 33.2415 25.7442 4.94959 -15.3844 0.0 0.0 0.0 0.0 0.0 
3124.23944125 655.575 -1665.71935323 -13.7627929392 69.3335352812 15.2818891425 0.0635648 0.0466996 0.928487 0.0640444 -0.0124745 0.929577 0.0640421 -0.206576 0.906421 0.0629006 -0.0608373 0.927668 7.35361 20.4232 -4.28277 10.1053 38.22 -5.48599 -0.0 0.0 -0.0 5.53008 24.6693 10.2917 -20.4919 -3.54526 69.2746 0.435656 -12.1785 0.0464757 -26.8098 -1.66966 2.96175 -3.2437 25.4994 -8.14061 -0.0 0.0 -0.0 13.0138 22.5457 -26.0705 4.47636 23.2545 -68.4536 0.719448 19.6158 -0.124374 9.98902 -0.243409 1.25118 4.24946 -10.5748 -33.6248 0.0 0.0 0.0 27.0835 15.4978 -9.78577 3.60381 -0.165093 -0.528219 -3.33543 -13.4323 0.530219 -28.2461 0.0 0.0 -0.0 0.0 -0.0 -7.03624 -20.8917 5.575 -13.8313 -0.318113 -2.09361 33.1063 21.2811 4.72503 -14.5086 0.0 0.0 0.0 0.0 0.0 
3074.64142469 659.439 -1662.1992513 -16.5273433792 71.6578384544 17.1109215107 0.389812 -0.0895391 1.22385 0.39063 -0.167229 1.21567 0.38727 -0.411261 1.15616 0.385474 -0.22352 1.2066 8.97718 19.6816 -3.90788 11.6259 36.2007 -5.35468 -0.0 0.0 -0.0 6.41775 24.5018 11.53 -20.8128 -3.21373 66.5609 0.460553 -12.852 0.0518711 -27.4342 -1.72437 3.02019 -3.06279 23.9346 -7.9936 -0.0 0.0 -0.0 12.5662 21.7537 -25.1024 1.0562 22.5624 -69.389 0.614821 16.939 -0.0915518 10.4588 -0.249452 1.31089 4.7868 -9.69121 -37.6851 0.0 0.0 0.0 24.3452 15.6709 -7.47346 0.220671 -0.00914941 -0.0326278 6.17087 -17.9078 -0.988235 -26.718 0.0 0.0 -0.0 0.0 -0.0 -6.40876 -16.2287 7.73335 -20.5897 -0.288162 -3.12953 31.9277 7.05503 4.19718 -9.51832 0.0 0.0 0.0 0.0 0.0 
3047.45917422 664.62 -1664.80682879 -13.5079271758 70.6880131227 14.5306944723 0.3118 -0.0266419 1.23562 0.312643 -0.105207 1.23142 0.31063 -0.355318 1.18373 0.308712 -0.163925 1.22499 10.0476 19.472 -4.68119 12.9361 36.2378 -6.62057 -0.0 0.0 -0.0 6.43146 24.4443 11.5538 -20.6408 -3.02973 65.3588 0.657849 -18.0498 0.104487 -27.3291 -1.71511 3.01039 -3.00475 23.9905 -7.62797 -0.0 0.0 -0.0 12.8494 21.525 -25.7775 -1.24888 21.7576 -69.3013 0.555135 15.3763 -0.0749407 10.9477 -0.25522 1.37306 5.07288 -8.64649 -39.764 0.0 0.0 0.0 22.6272 17.4386 -7.91752 -2.78824 0.104718 0.41505 9.75503 -16.4539 -1.52313 -26.137 0.0 0.0 -0.0 0.0 -0.0 -8.10598 -10.8714 6.29498 -22.1203 -0.264426 -3.36319 30.9465 0.376552 4.01335 -11.0507 0.0 0.0 0.0 0.0 0.0 
3021.13533345 666.761 -1665.94962037 -10.7582541759 70.2967738648 11.0846881997 0.219137 -0.167972 1.35905 0.220128 -0.254103 1.34561 0.214379 -0.526623 1.2641 0.212292 -0.320393 1.33139 7.04194 20.351 -1.86477 9.23423 36.0919 -2.32408 -0.0 0.0 -0.0 6.37011 24.3117 11.4791 -18.3115 -2.7809 64.5819 0.822126 -22.1588 0.160991 -27.8401 -1.76027 3.05785 -2.57449 24.5866 -4.84608 -0.0 0.0 -0.0 12.453 20.8831 -24.9112 -3.21228 20.9293 -70.3172 0.567906 15.7127 -0.0783632 10.5802 -0.250934 1.32632 5.55114 -7.98354 -43.8037 0.0 0.0 0.0 19.3206 19.1035 -5.59513 -1.73057 0.0673776 0.257026 15.0302 -19.8589 -2.36054 -25.5641 0.0 0.0 -0.0 0.0 -0.0 -8.74684 -2.81506 6.02876 -24.6904 -0.210556 -3.75387 30.1366 -12.9881 3.93067 -7.22075 0.0 0.0 0.0 0.0 0.0 
3021.10913534 666.761 -1667.5609304 -10.4586301361 69.7147074052 10.7658507915 0.219137 -0.167972 1.35905 0.220128 -0.254103 1.34561 0.214379 -0.526623 1.2641 0.212292 -0.320393 1.33139 7.04194 20.351 -1.86477 9.23423 36.0919 -2.32408 -0.0 0.0 -0.0 6.37011 24.3117 11.4791 -18.3115 -2.7809 64.5819 0.822126 -22.1588 0.160991 -27.8401 -1.76027 3.05785 -2.57449 24.5866 -4.84608 -0.0 0.0 -0.0 12.453 20.8831 -24.9112 -3.21228 20.9293 -70.3172 0.567906 15.7127 -0.0783632 10.5802 -0.250934 1.32632 5.55114 -7.98354 -43.8037 0.0 0.0 0.0 19.3206 19.1035 -5.59513 -1.73057 0.0673776 0.257026 15.0302 -19.8589 -2.36054 -25.5641 0.0 0.0 -0.0 0.0 -0.0 -8.74684 -2.81506 6.02876 -24.6904 -0.210556 -3.75387 30.1366 -12.9881 3.93067 -7.22075 0.0 0.0 0.0 0.0 0.0 
3021.10046951 666.761 -1668.75389139 -10.2479173714 69.2834566298 10.5408921518 0.219137 -0.167972 1.35905 0.220128 -0.254103 1.34561 0.214379 -0.526623 1.2641 0.212292 -0.320393 1.33139 7.04194 20.351 -1.86477 9.23423 36.0919 -2.32408 -0.0 0.0 -0.0 6.37011 24.3117 11.4791 -18.3115 -2.7809 64.5819 0.822126 -22.1588 0.160991 -27.8401 -1.76027 3.05785 -2.57449 24.5866 -4.84608 -0.0 0.0 -0.0 12.453 20.8831 -24.9112 -3.21228 20.9293 -70.3172 0.567906 15.7127 -0.0783632 10.5802 -0.250934 1.32632 5.55114 -7.98354 -43.8037 0.0 0.0 0.0 19.3206 19.1035 -5.59513 -1.73057 0.0673776 0.257026 15.0302 -19.8589 -2.36054 -25.5641 0.0 0.0 -0.0 0.0 -0.0 -8.74684 -2.81506 6.02876 -24.6904 -0.210556 -3.75387 30.1366 -12.9881 3.93067 -7.22075 0.0 0.0 0.0 0.0 0.0 
3000.43001817 665.702 -1671.15357672 -7.58917033377 67.6896357886 6.68375405874 0.21406 0.105868 1.46123 0.215248 0.0126816 1.46501 0.216048 -0.290158 1.43605 0.213174 -0.0597449 1.46384 6.76185 20.5002 0.275133 8.593 34.5643 0.387684 -0.0 0.0 -0.0 6.44387 23.9632 11.6108 -16.7912 -3.20913 63.9539 0.975617 -25.7936 0.223394 -28.3776 -1.80822 3.10734 -2.44952 24.8677 -3.9915 -0.0 0.0 -0.0 12.3093 20.6266 -24.5994 -5.21699 20.4242 -70.27 0.562009 15.5575 -0.076774 10.2446 -0.246757 1.28365 5.8066 -7.62023 -46.0866 0.0 0.0 0.0 17.4288 19.4501 -3.29932 -3.05256 0.113593 0.454644 19.2384 -19.1516 -2.93999 -25.4708 0.0 0.0 -0.0 0.0 -0.0 -8.07874 7.43694 6.12774 -32.6548 0.0667429 -4.94374 31.3849 -23.8836 4.23811 -5.40557 0.0 0.0 0.0 0.0 0.0 
2985.17143394 664.319 -1674.32546422 -6.61381714729 64.6235112892 4.77023120764 0.192233 0.369777 1.47639 0.193404 0.275091 1.49692 0.20126 -0.0403035 1.52145 0.198086 0.200459 1.50873 5.10116 20.9921 2.65232 6.57654 33.8715 3.57833 -0.0 0.0 -0.0 6.11624 24.1713 11.1354 -14.095 -3.89607 63.8633 1.13617 -29.371 0.297771 -27.7066 -1.74843 3.04549 -2.2478 24.6407 -2.96617 -0.0 0.0 -0.0 12.4199 20.2924 -24.8794 -6.1583 20.0573 -69.9836 0.549089 15.2166 -0.0733458 8.82118 -0.226269 1.10299 6.02693 -7.56788 -48.245 0.0 0.0 0.0 15.6518 19.6943 -1.77788 -1.56338 0.0612079 0.232109 22.9615 -20.0301 -3.46359 -24.366 0.0 0.0 -0.0 0.0 -0.0 -8.14346 14.6721 6.30609 -38.3081 0.362652 -5.75997 32.4571 -27.717 4.46356 -3.22769 0.0 0.0 0.0 0.0 0.0 
2968.30884763 663.771 -1673.54035014 -5.27952108135 63.2253696459 2.9821724327 0.173143 0.38528 1.48751 0.174327 0.289856 1.50901 0.182656 -0.0288505 1.53632 0.179426 0.214116 1.5216 3.80585 21.1844 4.59704 5.02958 32.9632 6.09907 -0.0 0.0 -0.0 5.97928 23.7897 10.9701 -11.0955 -4.7839 63.5698 1.27466 -32.268 0.368745 -27.2578 -1.70885 3.00374 -2.08095 24.4624 -2.10987 -0.0 0.0 -0.0 12.4009 20.0308 -24.8545 -7.36211 19.6826 -69.3635 0.539323 14.9582 -0.0708037 7.72903 -0.207508 0.964744 6.19864 -7.53019 -49.999 0.0 0.0 0.0 12.6661 19.9478 -0.317877 0.274839 -0.011415 -0.0406315 25.9117 -21.0707 -3.87549 -23.4157 0.0 0.0 -0.0 0.0 -0.0 -6.77674 19.9725 5.09355 -42.8385 0.657157 -6.39101 32.91 -30.0519 4.5932 -1.73442 0.0 0.0 0.0 0.0 0.0 
2938.12334272 671.662 -1670.55713776 -1.74846572365 62.8263591555 -1.0616826232 -0.150389 0.365508 1.44411 -0.14927 0.272885 1.46443 -0.141535 -0.0446563 1.48897 -0.144579 0.191033 1.47734 3.9698 21.1755 4.59259 5.20343 32.8948 6.06378 -0.0 0.0 -0.0 5.76798 23.7402 10.6765 -9.25359 -5.33611 63.8047 1.43604 -35.4249 0.458666 -26.9283 -1.67999 2.97289 -1.94398 24.2259 -1.44807 -0.0 0.0 -0.0 12.405 19.0119 -24.9325 -8.62235 18.6635 -69.0649 0.499421 13.8961 -0.0608618 6.87808 -0.191066 0.857289 6.27166 -7.74741 -50.8617 0.0 0.0 0.0 7.20389 19.9167 1.67689 0.803973 -0.0339403 -0.118704 27.591 -22.099 -4.12151 -22.3272 0.0 0.0 -0.0 0.0 -0.0 -6.66448 24.6415 6.03603 -46.5031 0.931434 -6.8835 32.865 -28.7654 4.54359 -1.34277 0.0 0.0 0.0 0.0 0.0 
